<svg version="1.1" xmlns="http://www.w3.org/2000/svg" viewBox="-1156.7573134942577 -1592.1772108649925 3401.002991979258 3401.2904810524974"><desc>Created with Snap</desc><defs></defs><g><g transform="matrix(7.2077,0,0,7.2077,-897.7926,-1333.0687)">
<g id="gSl2ebufiy2pe">
	<g>
		<path fill="#210070" d="M82.06866,46.80432c0.44048,0.09728,1.81986-0.49205,3.98136-1.64856
			c2.20975-1.09238,5.2579-2.67703,8.94401-4.68989c7.51703-3.80428,17.93356-8.86331,30.43024-13.1756
			c12.47414-4.32378,26.96772-7.99401,42.01273-9.6109c1.87662-0.19844,3.75923-0.39779,5.64507-0.59735
			c1.88943-0.14902,3.78758-0.23685,5.67796-0.35662c3.77602-0.30159,7.57491-0.23849,11.32912-0.3126
			c1.87773-0.03781,3.75569,0.09517,5.61867,0.13513c1.86383,0.08778,3.71739,0.06724,5.55797,0.24432
			c3.67995,0.31842,7.31462,0.49835,10.86098,1.02225c-24.46938,0.31527-45.84834,5.87472-62.983,13.23676
			c-8.58604,3.71305-16.09875,8.00225-22.67894,12.26207c-3.22648,2.26534-6.32965,4.31355-9.06628,6.60401
			c-1.37437,1.11085-2.71513,2.19456-4.02266,3.25142c-1.23869,1.13261-2.44566,2.23617-3.62017,3.31003
			c-9.26917,8.664-14.87678,16.66336-17.84011,22.57063c-2.84336,6.059-3.17654,9.94636-1.23619,11.60844
			c12.396-15.45393,28.45402-29.09509,47.43205-39.08565c18.9328-10.01645,40.72635-16.36285,63.47681-17.78591
			c22.73022-1.48197,46.37234,1.87225,68.61374,10.25464c11.11929,4.17942,21.8819,9.59661,32.00284,16.15094
			c10.12143,6.55412,19.58212,14.25672,28.18671,22.87717c17.22528,17.23357,30.80743,38.36257,39.42282,61.36801
			c8.65921,22.994,12.38708,47.78455,11.09464,72.0957c-1.24237,24.32739-7.58545,48.12822-18.00375,69.4503
			c-10.38284,21.37689-24.93945,40.10056-41.69687,55.30795c-8.38907,7.61682-17.36337,14.36597-26.70444,20.18491
			c-9.34406,5.82074-19.09393,10.61557-28.94733,14.54181c-9.86093,3.9166-19.85266,6.91727-29.78415,9.08392
			c-9.94624,2.10358-19.82362,3.32999-29.4743,3.85846c-9.65497,0.57462-19.08638,0.22992-28.16501-0.64651
			c-1.13516-0.11664-2.26575-0.23282-3.39136-0.34888c-1.12697-0.11121-2.24884-0.22696-3.3564-0.41266
			c-2.22144-0.33698-4.42419-0.67114-6.60777-1.00272c-2.18347-0.34042-4.3194-0.83633-6.45241-1.24716
			c-1.0649-0.21622-2.12482-0.43161-3.18013-0.64587c-1.05194-0.22882-2.08591-0.51355-3.12253-0.76712
			c-2.06961-0.52557-4.12024-1.04596-6.15103-1.56174c-2.00519-0.61169-3.99089-1.21768-5.95718-1.81741
			c-0.98251-0.30374-1.9601-0.60596-2.93306-0.90634c-0.95847-0.3439-1.91188-0.68619-2.86023-1.02689
			c-1.89658-0.68607-3.77393-1.36462-5.63077-2.03653c-7.32208-2.95859-14.25258-6.03729-20.57684-9.50757
			c-12.72123-6.81235-23.36193-14.39328-32.06516-21.69196c-2.17656-1.82785-4.29309-3.57358-6.18667-5.40707
			c-1.91791-1.80673-3.80501-3.49908-5.5228-5.21066c-3.36911-3.48929-6.50893-6.61322-9.06343-9.67181
			c-1.30597-1.50275-2.53819-2.92072-3.69509-4.25165c-1.09204-1.3862-2.11286-2.68185-3.06096-3.88477
			c-0.945-1.20602-1.81723-2.31924-2.61518-3.33749c-0.77715-1.03403-1.43549-2.00656-2.04808-2.85944
			c-2.41859-3.43576-3.70066-5.25714-3.74636-5.32217c-5.46113-8.26123-10.29185-16.883-14.46608-25.78323
			c-4.16677-8.90799-7.4951-18.15073-10.23626-27.52586c-2.76757-9.37598-4.63573-18.97604-5.88218-28.62491
			c-0.68911-4.82196-0.98716-9.67961-1.33614-14.5295l-0.20802-7.29013c-0.05188-1.21474-0.04251-2.42969-0.00855-3.6449
			l0.07005-3.64503c0.42722-19.44357,3.96095-38.7907,10.20834-57.30516c3.20473-9.23248,7.07828-18.25121,11.59234-26.98227
			c4.59464-8.69124,9.87891-17.03811,15.72216-25.0221c0.69774-0.90845,2.08265-2.71173,3.77679-4.91772
			c0.42325-0.55247,0.86528-1.12967,1.32112-1.72482c0.48035-0.5741,0.97521-1.16545,1.47757-1.76587
			c1.00593-1.20171,2.04324-2.44109,3.06269-3.65897c1.98835-2.48425,4.12689-4.67604,5.64749-6.44722
			c1.54144-1.75171,2.56507-2.98889,2.63037-3.26817l-0.00708,0.00397c-17.48207,17.50659-31.66323,38.43564-41.30956,61.28998
			c-9.67891,22.84109-14.85973,47.53831-15.24643,72.3043c-0.40845,24.76634,3.97346,49.61223,12.90819,72.75127
			c8.90224,23.14932,22.40002,44.53232,39.34857,62.56775c16.89465,18.05338,37.32344,32.93442,59.85665,43.33493
			c22.51597,10.43509,47.04972,16.40039,71.79456,17.58765c24.74609,1.20511,49.72084-2.37305,73.14037-10.55167
			c23.42676-8.14722,45.24942-20.94238,63.81384-37.33554c18.55795-16.34717,34.06335-36.25995,45.19333-58.44409
			c11.15619-22.16071,17.92752-46.4855,19.90485-71.17728c1.99942-24.6918-0.77719-49.75745-8.18207-73.42302
			c-7.37558-23.67151-19.42508-45.90224-35.18915-65.02438c-15.71448-19.13124-35.16812-35.17571-56.96564-47.04198
			c-21.789-11.86739-45.88651-19.42662-70.50345-22.19782c-24.61627-2.79403-49.7552-0.82467-73.64371,5.80912
			c-23.89274,6.60539-46.50471,17.92143-66.11643,33.08085L82.06866,46.80432z" style=""></path>
	</g>
</g>


<desc>Created with Snap</desc><defs></defs></g><g><g transform="matrix(1.024,0,0,-1.024,0,0)"><path d="M130 580L130 57Q130 45 179 45Q229 45 282 60Q336 76 381 106Q427 137 454 190Q481 244 481 324Q481 404 436 469Q351 592 174 592Q130 592 130 580ZM73 52L73 585L50 585Q25 585 25 611Q25 638 49 638L168 638Q329 637 432 552Q536 468 536 315Q536 162 433 81Q331 0 163 0L49 0Q25 0 25 26Q25 52 49 52L73 52ZM976 146Q979 156 989 163Q999 171 1009 171Q1020 171 1028 161Q1037 152 1037 141Q1037 92 975 41Q913 -10 831 -10Q717 -10 641 74Q566 159 566 316Q566 473 642 560Q719 648 822 648Q876 648 916 626Q957 604 957 560Q957 544 947 532Q938 520 917 520Q896 520 877 538Q859 556 859 576Q859 580 864 593Q848 600 818 600Q741 600 683 521Q625 442 625 325Q625 258 648 194Q671 130 718 85Q766 40 822 40Q878 40 920 70Q962 101 976 146Z" fill="#210070" style=""></path></g></g><g transform="matrix(1,0,0,1,-364.032,970.752)"><g transform="matrix(1.024,0,0,-1.024,0,0)"><path d="M49 52L73 52L73 585L49 585Q25 585 25 611Q25 638 49 638L237 638Q332 638 394 583Q457 529 457 441Q457 354 393 295Q330 236 223 236L130 236L130 52L160 52Q184 52 184 26Q184 0 160 0L49 0Q25 0 25 26Q25 52 49 52ZM130 580L130 283L239 283Q311 283 356 329Q401 375 401 442Q401 509 354 551Q307 593 242 593L209 593Q130 593 130 580ZM660 492Q746 492 793 436Q841 380 841 293Q841 155 851 106Q861 58 889 38Q906 30 906 16Q906 -10 882 -10Q858 -10 836 12Q815 35 802 68Q785 35 747 12Q710 -10 658 -10Q582 -10 534 37Q487 85 487 158Q487 232 537 284Q587 336 661 336Q736 336 786 287Q786 357 756 404Q726 452 664 452Q602 452 586 418Q595 397 595 383Q595 369 583 353Q571 337 553 337Q536 337 526 352Q516 367 516 387Q516 429 557 460Q599 492 660 492ZM542 163Q542 108 579 71Q616 34 667 34Q719 34 754 69Q789 105 789 156L789 165Q789 219 753 254Q717 289 664 289Q612 289 577 253Q542 218 542 163ZM1252 137Q1270 137 1278 128Q1286 120 1286 110Q1286 75 1241 32Q1197 -10 1126 -10Q1036 -10 981 61Q926 133 926 241Q926 349 979 419Q1032 490 1114 490Q1159 490 1193 468Q1227 447 1227 412Q1227 394 1217 382Q1208 370 1190 370Q1172 370 1158 390Q1144 411 1143 438Q1127 445 1115 445Q1060 445 1021 388Q982 332 982 242Q982 153 1023 94Q1065 36 1126 36Q1187 36 1223 113Q1234 137 1252 137ZM1358 52L1358 586L1337 586Q1314 586 1314 612Q1314 638 1337 638L1440 638Q1463 638 1463 612Q1463 586 1440 586L1414 586L1414 309L1567 429L1546 429Q1537 429 1530 436Q1524 444 1524 454Q1524 465 1530 472Q1536 479 1546 479L1665 479Q1686 479 1686 454Q1686 429 1665 429L1635 429L1533 347L1698 52L1727 52Q1748 52 1748 26Q1748 0 1727 0L1613 0Q1588 0 1588 26Q1588 52 1613 52L1635 52L1490 313L1414 256L1414 52L1434 52Q1456 52 1456 26Q1456 0 1434 0L1332 0Q1311 0 1311 26Q1311 52 1332 52L1358 52Z" fill="#210070" style=""></path></g></g></g></svg>